<?xml version="1.0" standalone="no"?>
<!DOCTYPE svg PUBLIC "-//W3C//DTD SVG 20010904//EN"
 "http://www.w3.org/TR/2001/REC-SVG-20010904/DTD/svg10.dtd">
<svg version="1.0" xmlns="http://www.w3.org/2000/svg"
 width="2048.000000pt" height="2048.000000pt" viewBox="0 0 2048.000000 2048.000000"
 preserveAspectRatio="xMidYMid meet">
<metadata>
Created by potrace 1.14, written by Peter Selinger 2001-2017
</metadata>
<g transform="translate(0.000000,2048.000000) scale(0.100000,-0.100000)"
fill="#000000" stroke="none">
<path d="M12507 19904 c-101 -15 -262 -67 -370 -119 -227 -107 -376 -262 -449
-465 l-23 -65 -3 -2009 -2 -2008 137 6 c76 4 254 14 396 22 397 22 858 34 879
23 39 -21 78 -146 78 -252 0 -74 -23 -194 -44 -236 -14 -26 -21 -28 -138 -45
-389 -54 -646 -147 -792 -286 -136 -130 -204 -295 -221 -536 -9 -119 249
-5528 270 -5675 50 -346 174 -553 400 -665 52 -26 98 -44 102 -41 3 4 -3 28
-15 55 -21 44 -31 89 -66 302 -15 90 -30 360 -20 360 3 0 53 -26 112 -59 519
-286 1154 -534 1592 -621 246 -50 531 -64 692 -36 275 49 429 307 478 793 12
127 2 235 -48 513 l-37 205 -6 4910 c-6 4979 -6 5043 -40 5108 -19 34 -108
125 -169 172 -373 286 -1365 590 -2135 655 -165 14 -452 11 -558 -6z"/>
<path d="M5390 14963 c0 -13 2065 -5142 2070 -5143 6 0 110 271 110 287 0 7
-11 33 -25 59 -14 26 -25 54 -25 63 0 9 -9 30 -19 47 -10 17 -26 56 -35 87 -9
31 -20 59 -25 62 -6 3 -17 31 -26 63 -9 31 -21 62 -27 69 -5 7 -20 41 -34 77
-13 37 -35 95 -48 132 -14 36 -29 70 -34 77 -5 7 -15 30 -22 52 -6 22 -23 62
-36 89 -13 28 -24 57 -24 65 0 9 -9 30 -19 47 -10 17 -26 56 -35 87 -9 31 -20
59 -25 62 -6 3 -17 30 -26 61 -9 30 -25 69 -35 87 -11 18 -20 39 -20 48 0 9
-11 36 -24 61 -13 25 -27 60 -31 78 -4 18 -18 53 -31 78 -13 25 -24 52 -24 61
0 9 -14 43 -30 76 -17 33 -30 66 -30 75 0 8 -9 29 -19 46 -10 17 -26 56 -35
87 -9 31 -20 59 -25 62 -6 3 -17 30 -26 61 -9 30 -25 69 -35 87 -11 18 -20 39
-20 48 0 9 -11 36 -24 61 -13 25 -27 60 -31 78 -4 18 -18 53 -31 78 -13 25
-24 52 -24 61 0 9 -14 43 -30 76 -17 33 -30 66 -30 74 0 7 -9 28 -19 45 -11
17 -24 51 -31 76 -6 25 -18 55 -25 66 -8 12 -23 46 -33 75 -41 113 -74 194
-82 204 -4 5 -15 33 -23 60 -9 28 -25 68 -36 90 -12 21 -21 45 -21 52 0 8 -11
36 -25 63 -14 27 -25 55 -25 62 0 7 -14 40 -30 73 -16 33 -30 67 -30 75 0 8
-7 29 -16 45 -9 17 -27 57 -39 90 -65 169 -76 197 -89 218 -8 12 -17 37 -21
56 -4 19 -18 54 -31 79 -13 25 -24 51 -24 59 0 8 -11 35 -25 61 -14 26 -25 54
-25 62 0 8 -14 42 -30 75 -16 33 -30 67 -30 75 0 8 -7 29 -16 45 -9 17 -27 58
-40 93 -13 34 -35 90 -48 125 -13 34 -31 76 -40 92 -9 17 -19 44 -22 61 -3 18
-19 48 -36 68 l-29 36 -100 0 c-54 0 -99 -3 -99 -7z"/>
<path d="M2030 14673 c0 -95 16 -170 45 -207 22 -29 35 -36 73 -41 26 -3 70
-10 97 -16 28 -5 93 -17 145 -25 52 -9 131 -26 175 -39 44 -13 98 -27 120 -31
22 -3 51 -13 64 -22 14 -8 51 -23 83 -33 66 -20 69 -15 37 46 -78 147 -209
245 -434 325 -88 31 -278 81 -362 95 l-43 7 0 -59z"/>
<path d="M9583 13643 c-5 -10 -603 -1559 -1329 -3442 -1011 -2624 -1324 -3427
-1341 -3438 -12 -8 -55 -26 -95 -40 -61 -22 -96 -26 -220 -31 -134 -4 -165
-10 -139 -26 5 -3 14 -27 21 -53 6 -27 20 -61 30 -78 10 -16 23 -50 30 -74 8
-29 28 -61 58 -93 45 -47 51 -50 152 -73 111 -26 203 -31 260 -15 19 5 73 15
120 21 55 7 99 19 126 35 45 26 90 91 100 146 4 18 15 49 25 68 10 19 28 61
39 93 11 31 29 83 40 115 11 31 29 73 39 92 10 19 22 51 26 70 4 19 15 49 25
65 10 17 21 46 25 65 4 19 16 51 26 70 10 19 28 61 39 93 11 31 29 83 40 115
11 31 29 73 39 92 10 19 22 51 26 70 4 19 15 49 25 65 10 17 21 46 25 65 4 19
16 51 26 70 10 19 28 61 39 92 49 139 62 175 81 214 10 22 19 47 19 56 0 8 11
35 24 60 13 25 27 60 31 79 4 19 15 49 26 66 10 18 23 52 29 75 6 24 22 65 36
92 13 28 24 57 24 65 0 9 12 39 25 66 14 28 25 57 25 66 0 9 11 36 24 61 13
25 27 60 31 79 4 19 18 54 31 79 13 25 24 53 24 63 0 10 11 39 24 65 13 26 27
62 31 81 4 19 18 54 31 79 13 25 24 53 24 62 0 9 11 37 24 62 13 25 27 60 31
79 4 19 18 54 30 79 12 25 26 60 30 79 4 18 15 48 25 65 10 17 21 47 25 66 4
19 15 49 25 65 10 17 23 50 30 75 6 25 18 54 25 66 7 11 20 45 29 74 9 29 22
63 29 74 8 12 19 42 25 68 7 26 21 62 31 80 10 18 22 48 26 67 4 19 18 54 31
79 13 25 24 52 24 60 0 9 9 34 20 56 18 39 30 69 80 211 11 33 29 76 39 95 10
19 22 50 26 69 4 19 18 54 31 79 13 25 24 52 24 60 0 9 9 34 19 56 11 23 29
67 40 99 12 31 30 83 42 115 11 31 29 75 39 97 10 22 22 54 26 70 3 17 15 44
24 60 10 17 21 46 25 65 4 19 16 51 26 70 10 19 28 61 39 93 11 31 29 83 40
115 11 31 29 73 40 93 11 20 20 46 20 56 0 11 11 40 24 65 13 25 27 60 31 79
4 19 16 50 26 69 10 19 28 61 39 93 11 31 29 83 40 115 11 31 27 69 36 84 13
24 12 91 -11 645 -15 340 -28 619 -30 621 -2 2 -7 -5 -12 -15z"/>
<path d="M3526 13329 c-4 -41 -75 -1188 -157 -2549 -137 -2244 -150 -2485
-140 -2585 13 -137 31 -208 80 -311 45 -94 132 -193 212 -241 89 -53 90 -53
72 4 -32 101 -27 572 12 952 8 80 19 274 25 430 6 156 17 345 25 420 8 75 19
258 25 406 6 149 19 369 30 490 11 121 24 346 30 500 6 154 17 339 25 410 8
72 19 247 25 390 11 288 17 391 30 510 5 44 14 168 20 275 l10 194 -151 376
c-83 206 -155 381 -159 389 -5 9 -10 -14 -14 -60z"/>
<path d="M13497 7043 c-2 -4 -8 -26 -12 -48 -3 -22 -14 -56 -23 -75 l-17 -35
-370 2 c-354 2 -561 9 -1105 35 -432 21 -1498 16 -2090 -10 -283 -12 -595 -25
-692 -28 l-177 -6 -7 -66 c-7 -73 0 -196 15 -235 6 -14 22 -45 37 -68 l26 -42
412 7 c415 7 892 21 1021 31 39 3 275 10 525 15 470 11 998 6 1320 -11 363
-19 621 -28 1055 -34 362 -6 443 -5 456 7 9 7 26 38 39 68 20 47 24 72 24 170
0 103 -3 122 -28 183 -35 83 -60 104 -134 112 -97 10 -216 25 -243 31 -15 3
-29 2 -32 -3z"/>
<path d="M4432 6983 c-12 -32 -31 -69 -44 -82 l-22 -24 -275 6 c-152 4 -411
17 -576 29 -252 18 -382 22 -810 22 -304 0 -568 -5 -655 -12 -80 -7 -233 -17
-340 -22 -107 -6 -227 -13 -267 -16 l-72 -6 -20 -68 c-26 -86 -26 -83 5 -218
24 -102 29 -114 53 -124 34 -14 831 5 840 20 8 14 236 30 526 37 271 6 775 -8
1060 -31 105 -8 342 -17 527 -21 307 -5 339 -5 363 11 33 22 48 58 75 176 l21
95 -20 98 c-32 153 -32 153 -183 167 -57 6 -117 13 -134 16 -30 5 -31 4 -52
-53z"/>
<path d="M12235 6483 c-108 -15 -225 -63 -300 -123 -153 -122 -254 -359 -275
-650 -18 -243 -28 -1073 -16 -1410 13 -384 11 -467 -9 -640 -25 -206 -64 -341
-144 -505 -131 -264 -174 -401 -175 -555 -2 -153 40 -233 184 -354 291 -245
878 -523 1785 -846 526 -187 912 -302 1160 -344 275 -48 530 18 691 178 133
133 184 287 228 681 27 242 37 417 46 850 9 415 22 621 80 1335 42 517 50 660
50 872 0 309 -19 389 -112 473 -202 182 -825 450 -1714 739 -619 201 -1257
330 -1479 299z"/>
</g>
</svg>
