<?xml version="1.0" encoding="UTF-8" standalone="no"?>
<svg
   viewBox="0 0 300 300"
   height="300"
   width="300"
   xml:space="preserve"
   version="1.1"
   id="svg2"
   sodipodi:docname="pinterest.svg"
   inkscape:version="1.1 (c68e22c387, 2021-05-23)"
   xmlns:inkscape="http://www.inkscape.org/namespaces/inkscape"
   xmlns:sodipodi="http://sodipodi.sourceforge.net/DTD/sodipodi-0.dtd"
   xmlns="http://www.w3.org/2000/svg"
   xmlns:svg="http://www.w3.org/2000/svg"
   xmlns:rdf="http://www.w3.org/1999/02/22-rdf-syntax-ns#"
   xmlns:cc="http://creativecommons.org/ns#"
   xmlns:dc="http://purl.org/dc/elements/1.1/"><sodipodi:namedview
     pagecolor="#ffffff"
     bordercolor="#666666"
     borderopacity="1"
     objecttolerance="10"
     gridtolerance="10"
     guidetolerance="10"
     inkscape:pageopacity="0"
     inkscape:pageshadow="2"
     inkscape:window-width="1920"
     inkscape:window-height="1017"
     id="namedview33"
     showgrid="false"
     inkscape:zoom="1"
     inkscape:cx="248.5"
     inkscape:cy="375.5"
     inkscape:window-x="-8"
     inkscape:window-y="-8"
     inkscape:window-maximized="1"
     inkscape:current-layer="g10"
     inkscape:pagecheckerboard="0"
     width="300px" /><metadata
     id="metadata8"><rdf:RDF><cc:Work
         rdf:about=""><dc:format>image/svg+xml</dc:format><dc:type
           rdf:resource="http://purl.org/dc/dcmitype/StillImage" /></cc:Work></rdf:RDF></metadata><defs
     id="defs6"><clipPath
       id="clipPath18"
       clipPathUnits="userSpaceOnUse"><path
         id="path20"
         d="M 0,250 H 1023 V 0 H 0 Z" /></clipPath><clipPath
       clipPathUnits="userSpaceOnUse"
       id="clipPath463"><rect
         style="fill:#a4453f;stroke-width:0.8"
         id="rect465"
         width="269.39673"
         height="254.99333"
         x="-4.2676706"
         y="-252.6673"
         transform="scale(1,-1)" /></clipPath></defs><g
     transform="matrix(1.25,0,0,-1.25,0,312.5)"
     id="g10"
     clip-path="url(#clipPath463)"><g
       id="g14"
       transform="translate(-1.0502,3.0079)"><g
         clip-path="url(#clipPath18)"
         id="g16"><g
           transform="translate(442.0549,159.8871)"
           id="g22" /><g
           transform="translate(438.5334,187.0405)"
           id="g26"><path
             id="path28"
             style="fill:#e60023;fill-opacity:1;fill-rule:nonzero;stroke:none"
             d="m 0,0 c 0,10.705 -8.678,19.382 -19.382,19.382 -10.704,0 -19.382,-8.677 -19.382,-19.382 0,-10.704 8.678,-19.381 19.382,-19.381 C -8.678,-19.381 0,-10.704 0,0" /></g><g
           transform="translate(767.6262,161.353)"
           id="g30" /><g
           transform="translate(926.1896,122.4228)"
           id="g34" /><g
           transform="translate(817.7492,139.8666)"
           id="g38" /><g
           transform="translate(1021.9494,82.3271)"
           id="g42" /><g
           transform="translate(598.0783,82.2812)"
           id="g46" /><g
           transform="translate(668.4582,120.0429)"
           id="g50" /><g
           transform="translate(346.8825,133.5224)"
           id="g54" /><g
           transform="translate(245.0344,124.9999)"
           id="g58"><path
             id="path60"
             style="fill:#ffffff;fill-opacity:1;fill-rule:nonzero;stroke:none"
             d="m 0,0 c 0,-67.374 -54.618,-121.992 -121.992,-121.992 -67.374,0 -121.992,54.618 -121.992,121.992 0,67.375 54.618,121.992 121.992,121.992 C -54.618,121.992 0,67.375 0,0" /></g><g
           transform="translate(123.0422,246.9921)"
           id="g62"><path
             id="path64"
             style="fill:#e60023;fill-opacity:1;fill-rule:nonzero;stroke:none;stroke-width:0.983671"
             d="M -1.9920018,0 C -68.265855,0 -121.992,-53.726145 -121.992,-120 c 0,-50.83809 31.629942,-94.29766 76.268934,-111.78241 -1.048593,9.49439 -1.996852,24.09601 0.416093,34.46095 2.180799,9.36553 14.071415,59.64785 14.071415,59.64785 0,0 -3.589416,7.18866 -3.589416,17.81624 0,16.68602 9.671453,29.143227 21.713555,29.143227 10.2380479,0 15.1829623,-7.686407 15.1829623,-16.903407 0,-10.29608 -6.5551839,-25.68955 -9.9380286,-39.95474 -2.8270707,-11.94374 5.989573,-21.68405 17.7700174,-21.68405 21.3279559,0 37.7228009,22.48868 37.7228009,54.95081 0,28.732052 -20.645288,48.820582 -50.1249255,48.820582 -34.1442055,0 -54.1855195,-25.609877 -54.1855195,-52.076532 0,-10.31379 3.973047,-21.3732 8.930749,-27.3854 0.98072,-1.18828 1.124337,-2.229 0.832187,-3.44187 -0.91088,-3.79008 -2.935275,-11.94077 -3.332678,-13.60908 -0.523313,-2.19654 -1.739131,-2.6628 -4.013378,-1.60437 -14.987213,6.97619 -24.357663,28.88845 -24.357663,46.48829 0,37.853631 27.503442,72.61755 79.28880498,72.61755 41.62797502,0 73.97796502,-29.663584 73.97796502,-69.30651 0,-41.35648 -26.076137,-74.63998 -62.269328,-74.63998 -12.16014202,0 -23.591384,6.31714 -27.504427,13.77927 0,0 -6.017115,-22.91167 -7.475899,-28.52646 -2.70903,-10.42298 -10.022625,-23.4881 -14.914421,-31.45879 11.227622,-3.47629 23.159551,-5.35117 35.5301982,-5.35117 66.2748368,0 120.0009818,63.43123 120.0009818,120 0,56.568775 -53.726145,120 -120.0009818,120"
             sodipodi:nodetypes="cscccssscssssccccsssscccsac" /></g></g></g></g></svg>
